<?xml version="1.0" encoding="utf-8"?>
<svg viewBox="0 0 31 31" xmlns="http://www.w3.org/2000/svg" xmlns:xlink="http://www.w3.org/1999/xlink">
    <style>
        :root>svg {
            display: none
        }

        :root>svg:target {
            display: block
        }
    </style>

    <svg id='arrow' viewBox="0 0 24 22" xmlns="http://www.w3.org/2000/svg">
        <path d="M7.62939e-05 11H22" stroke-width="2" />
        <path d="M14.2999 1L21.9999 11L14.2999 20.9999" stroke-width="2" />
    </svg>
    <svg id='like' viewBox="-2 0 26 20" xmlns="http://www.w3.org/2000/svg">
        <path
            d="M11 20C10.6868 20 10.3848 19.8841 10.1495 19.6734C9.26077 18.8794 8.40392 18.1331 7.64793 17.4749L7.64407 17.4714C5.42766 15.5415 3.5137 13.8747 2.18201 12.2329C0.693375 10.3974 0 8.65709 0 6.75591C0 4.90876 0.619858 3.20464 1.74527 1.95726C2.88411 0.695126 4.44676 0 6.14587 0C7.4158 0 8.57881 0.410249 9.60251 1.21926C10.1191 1.62762 10.5874 2.1274 11 2.71036C11.4127 2.1274 11.8809 1.62762 12.3977 1.21926C13.4214 0.410249 14.5844 0 15.8543 0C17.5532 0 19.1161 0.695126 20.2549 1.95726C21.3803 3.20464 22 4.90876 22 6.75591C22 8.65709 21.3068 10.3974 19.8182 12.2327C18.4865 13.8747 16.5727 15.5413 14.3566 17.4711C13.5993 18.1304 12.7411 18.8778 11.8503 19.6738C11.6152 19.8841 11.313 20 11 20Z"
            stroke="white" />
    </svg>
    <svg id='close' viewBox="0 0 21 21" fill="none" xmlns="http://www.w3.org/2000/svg">
        <path d="M1.48718 1L20 20" stroke="#C4C4C4" stroke-width="2" stroke-linecap="round" stroke-linejoin="round" />
        <path d="M19.5128 1L0.999996 20" stroke="#C4C4C4" stroke-width="2" stroke-linecap="round"
            stroke-linejoin="round" />
    </svg>
    <svg id='black-exit' viewBox="0 0 25 25" xmlns="http://www.w3.org/2000/svg">
        <path
            d="M14.0625 21.875H9.89583C9.60833 21.875 9.375 21.6417 9.375 21.3542C9.375 21.0667 9.60833 20.8333 9.89583 20.8333H14.0625C14.924 20.8333 15.625 20.1323 15.625 19.2708V14.0625C15.625 13.775 15.8583 13.5417 16.1458 13.5417C16.4333 13.5417 16.6667 13.775 16.6667 14.0625V19.2708C16.6667 20.7062 15.499 21.875 14.0625 21.875Z"
            fill="black" />
        <path
            d="M24.4792 11.4583H14.0625C13.775 11.4583 13.5417 11.225 13.5417 10.9375C13.5417 10.65 13.775 10.4167 14.0625 10.4167H24.4792C24.7667 10.4167 25 10.65 25 10.9375C25 11.225 24.7667 11.4583 24.4792 11.4583Z"
            fill="black" />
        <path
            d="M8.33333 25C8.10417 25 7.88021 24.9615 7.66875 24.8865L1.42917 22.8062C0.575 22.5219 0 21.7281 0 20.8333V2.08333C0 0.934375 0.934375 0 2.08333 0C2.31458 0 2.53958 0.0385417 2.74896 0.114583L8.9875 2.19375C9.84167 2.47708 10.4167 3.27083 10.4167 4.16667V22.9167C10.4167 24.0656 9.48229 25 8.33333 25ZM2.08333 1.04167C1.50833 1.04167 1.04167 1.50937 1.04167 2.08333V20.8333C1.04167 21.2792 1.32917 21.675 1.75833 21.8187L8.00833 23.9021C8.69167 24.1448 9.375 23.5979 9.375 22.9167V4.16667C9.375 3.71979 9.0875 3.32396 8.65833 3.18229L2.40833 1.09896C2.30104 1.06042 2.19167 1.04167 2.08333 1.04167Z"
            fill="black" />
        <path
            d="M16.1458 8.33333C15.8583 8.33333 15.625 8.1 15.625 7.8125V2.60417C15.625 1.74271 14.924 1.04167 14.0625 1.04167H2.08333C1.79583 1.04167 1.5625 0.808333 1.5625 0.520833C1.5625 0.233333 1.79583 0 2.08333 0H14.0625C15.499 0 16.6667 1.16875 16.6667 2.60417V7.8125C16.6667 8.1 16.4333 8.33333 16.1458 8.33333Z"
            fill="black" />
        <path
            d="M20.3125 15.625C20.1791 15.625 20.0458 15.574 19.9437 15.4729C19.7406 15.2698 19.7406 14.9396 19.9437 14.7365L23.7416 10.9386L19.9437 7.14063C19.7406 6.93751 19.7406 6.6073 19.9437 6.40417C20.1469 6.20105 20.4771 6.20105 20.6802 6.40417L24.8469 10.5708C25.05 10.774 25.05 11.1042 24.8469 11.3073L20.6802 15.474C20.5791 15.574 20.4458 15.625 20.3125 15.625Z"
            fill="black" />
    </svg>
    <svg id='white-exit' viewBox="0 0 25 25" xmlns="http://www.w3.org/2000/svg">
        <path
            d="M14.0625 21.875H9.89583C9.60833 21.875 9.375 21.6417 9.375 21.3542C9.375 21.0667 9.60833 20.8333 9.89583 20.8333H14.0625C14.924 20.8333 15.625 20.1323 15.625 19.2708V14.0625C15.625 13.775 15.8583 13.5417 16.1458 13.5417C16.4333 13.5417 16.6667 13.775 16.6667 14.0625V19.2708C16.6667 20.7062 15.499 21.875 14.0625 21.875Z"
            fill="white" />
        <path
            d="M24.4792 11.4583H14.0625C13.775 11.4583 13.5417 11.225 13.5417 10.9375C13.5417 10.65 13.775 10.4167 14.0625 10.4167H24.4792C24.7667 10.4167 25 10.65 25 10.9375C25 11.225 24.7667 11.4583 24.4792 11.4583Z"
            fill="white" />
        <path
            d="M8.33333 25C8.10417 25 7.88021 24.9615 7.66875 24.8865L1.42917 22.8062C0.575 22.5219 0 21.7281 0 20.8333V2.08333C0 0.934375 0.934375 0 2.08333 0C2.31458 0 2.53958 0.0385417 2.74896 0.114583L8.9875 2.19375C9.84167 2.47708 10.4167 3.27083 10.4167 4.16667V22.9167C10.4167 24.0656 9.48229 25 8.33333 25ZM2.08333 1.04167C1.50833 1.04167 1.04167 1.50937 1.04167 2.08333V20.8333C1.04167 21.2792 1.32917 21.675 1.75833 21.8187L8.00833 23.9021C8.69167 24.1448 9.375 23.5979 9.375 22.9167V4.16667C9.375 3.71979 9.0875 3.32396 8.65833 3.18229L2.40833 1.09896C2.30104 1.06042 2.19167 1.04167 2.08333 1.04167Z"
            fill="white" />
        <path
            d="M16.1458 8.33333C15.8583 8.33333 15.625 8.1 15.625 7.8125V2.60417C15.625 1.74271 14.924 1.04167 14.0625 1.04167H2.08333C1.79583 1.04167 1.5625 0.808333 1.5625 0.520833C1.5625 0.233333 1.79583 0 2.08333 0H14.0625C15.499 0 16.6667 1.16875 16.6667 2.60417V7.8125C16.6667 8.1 16.4333 8.33333 16.1458 8.33333Z"
            fill="white" />
        <path
            d="M20.3125 15.625C20.1791 15.625 20.0458 15.574 19.9437 15.4729C19.7406 15.2698 19.7406 14.9396 19.9437 14.7365L23.7416 10.9386L19.9437 7.14063C19.7406 6.93751 19.7406 6.6073 19.9437 6.40417C20.1469 6.20105 20.4771 6.20105 20.6802 6.40417L24.8469 10.5708C25.05 10.774 25.05 11.1042 24.8469 11.3073L20.6802 15.474C20.5791 15.574 20.4458 15.625 20.3125 15.625Z"
            fill="white" />
    </svg>
    <svg id='edit' viewBox="0 0 22 21" xmlns="http://www.w3.org/2000/svg">
        <path
            d="M15.095 21H2.4065C1.07899 21 0 19.921 0 18.5935V5.905C0 4.57749 1.07899 3.4985 2.4065 3.4985H9.84456C10.2068 3.4985 10.5009 3.79252 10.5009 4.1548C10.5009 4.51708 10.2068 4.8111 9.84456 4.8111H2.4065C1.80355 4.8111 1.31261 5.30205 1.31261 5.905V18.5935C1.31261 19.1964 1.80355 19.6874 2.4065 19.6874H15.095C15.6979 19.6874 16.1889 19.1964 16.1889 18.5935V11.1554C16.1889 10.7931 16.4829 10.4991 16.8452 10.4991C17.2075 10.4991 17.5015 10.7923 17.5015 11.1554V18.5935C17.5015 19.921 16.4225 21 15.095 21Z"
            fill="#AFAFAF" />
        <path
            d="M7.67616 13.9801C7.50375 13.9801 7.33567 13.9119 7.21229 13.7877C7.05655 13.6328 6.99005 13.4096 7.033 13.1952L7.65165 10.101C7.67696 9.97326 7.73993 9.85678 7.83094 9.76577L16.8942 0.703612C17.8322 -0.234537 19.3584 -0.234537 20.2974 0.703612C20.7514 1.1577 21.0017 1.76161 21.0017 2.40478C21.0017 3.04794 20.7514 3.65169 20.2964 4.10595L11.2342 13.1691C11.1432 13.2609 11.0259 13.323 10.899 13.3484L7.80563 13.967C7.76269 13.9758 7.71894 13.9801 7.67616 13.9801ZM10.7704 12.7052H10.7792H10.7704ZM8.89952 10.5535L8.51353 12.4873L10.4465 12.1005L19.3688 3.17837C19.5754 2.97087 19.6891 2.69704 19.6891 2.40478C19.6891 2.11252 19.5754 1.83852 19.3688 1.63119C18.9436 1.20497 18.2496 1.20497 17.8218 1.63119L8.89952 10.5535Z"
            fill="#AFAFAF" />
        <path
            d="M18.5952 5.53666C18.4273 5.53666 18.2592 5.47273 18.1315 5.34406L15.6568 2.8685C15.4004 2.61213 15.4004 2.19649 15.6568 1.94013C15.9131 1.68376 16.3288 1.68376 16.5853 1.94013L19.0599 4.41569C19.3163 4.67205 19.3163 5.08769 19.0599 5.34406C18.9312 5.47192 18.7633 5.53666 18.5952 5.53666Z"
            fill="#AFAFAF" />
    </svg>
    <svg id='delete' viewBox="0 0 20 25" xmlns="http://www.w3.org/2000/svg">
        <path
            d="M13.4025 9.05762C13.084 9.05762 12.8258 9.31971 12.8258 9.6431V20.7087C12.8258 21.0318 13.084 21.2942 13.4025 21.2942C13.721 21.2942 13.9792 21.0318 13.9792 20.7087V9.6431C13.9792 9.31971 13.721 9.05762 13.4025 9.05762Z"
            fill="#AFAFAF" />
        <path
            d="M6.59745 9.05762C6.27891 9.05762 6.02075 9.31971 6.02075 9.6431V20.7087C6.02075 21.0318 6.27891 21.2942 6.59745 21.2942C6.91598 21.2942 7.17415 21.0318 7.17415 20.7087V9.6431C7.17415 9.31971 6.91598 9.05762 6.59745 9.05762Z"
            fill="#AFAFAF" />
        <path
            d="M1.63791 7.44274V21.8677C1.63791 22.7203 1.94586 23.521 2.48381 24.0955C3.01928 24.6716 3.76448 24.9986 4.54437 25H15.4556C16.2358 24.9986 16.9809 24.6716 17.5162 24.0955C18.0541 23.521 18.3621 22.7203 18.3621 21.8677V7.44274C19.4315 7.15458 20.1244 6.10575 19.9813 4.99174C19.8381 3.87796 18.9034 3.04479 17.7969 3.04456H14.8442V2.31272C14.8476 1.69728 14.6079 1.10631 14.1788 0.671547C13.7497 0.237013 13.1666 -0.00495453 12.5604 7.6927e-05H7.43956C6.83335 -0.00495453 6.25035 0.237013 5.82121 0.671547C5.39207 1.10631 5.15238 1.69728 5.15576 2.31272V3.04456H2.20312C1.09658 3.04479 0.161929 3.87796 0.0186564 4.99174C-0.124391 6.10575 0.568545 7.15458 1.63791 7.44274ZM15.4556 23.829H4.54437C3.55835 23.829 2.7913 22.9691 2.7913 21.8677V7.4942H17.2087V21.8677C17.2087 22.9691 16.4416 23.829 15.4556 23.829ZM6.30915 2.31272C6.30532 2.00786 6.42336 1.71443 6.63647 1.49922C6.84935 1.28401 7.13905 1.16577 7.43956 1.17103H12.5604C12.861 1.16577 13.1507 1.28401 13.3635 1.49922C13.5766 1.7142 13.6947 2.00786 13.6909 2.31272V3.04456H6.30915V2.31272ZM2.20312 4.21552H17.7969C18.3702 4.21552 18.8349 4.68733 18.8349 5.26938C18.8349 5.85143 18.3702 6.32324 17.7969 6.32324H2.20312C1.6298 6.32324 1.16506 5.85143 1.16506 5.26938C1.16506 4.68733 1.6298 4.21552 2.20312 4.21552Z"
            fill="#AFAFAF" />
        <path
            d="M9.99998 9.05762C9.68144 9.05762 9.42328 9.31971 9.42328 9.6431V20.7087C9.42328 21.0318 9.68144 21.2942 9.99998 21.2942C10.3185 21.2942 10.5767 21.0318 10.5767 20.7087V9.6431C10.5767 9.31971 10.3185 9.05762 9.99998 9.05762Z"
            fill="#AFAFAF" />
    </svg>

</svg>