<?xml version="1.0" standalone="no"?>
<!DOCTYPE svg PUBLIC "-//W3C//DTD SVG 20010904//EN"
 "http://www.w3.org/TR/2001/REC-SVG-20010904/DTD/svg10.dtd">
<svg version="1.0" xmlns="http://www.w3.org/2000/svg"
 width="800.000000pt" height="800.000000pt" viewBox="0 0 800.000000 800.000000"
 preserveAspectRatio="xMidYMid meet">
<metadata>
Created by potrace 1.14, written by Peter Selinger 2001-2017
</metadata>
<g transform="translate(0.000000,800.000000) scale(0.100000,-0.100000)"
fill="#000000" stroke="none">
<path d="M4177 7974 c-1 -1 -40 -4 -87 -8 -74 -5 -218 -23 -330 -41 -19 -4
-72 -15 -117 -25 -46 -11 -93 -22 -105 -24 -58 -12 -213 -59 -313 -95 -167
-60 -179 -65 -187 -76 -4 -5 -8 -6 -8 -2 0 5 -12 1 -27 -7 -16 -8 -71 -35
-123 -61 -128 -63 -194 -98 -198 -107 -2 -5 -8 -8 -14 -8 -11 0 -57 -29 -191
-119 -38 -25 -76 -50 -85 -56 -10 -5 -19 -12 -22 -16 -3 -3 -23 -18 -45 -34
-22 -17 -42 -32 -45 -35 -3 -3 -30 -25 -60 -50 -121 -98 -287 -263 -387 -386
-76 -93 -138 -173 -171 -224 -20 -30 -40 -56 -44 -58 -5 -2 -8 -7 -8 -11 0 -4
-23 -46 -51 -92 -53 -87 -155 -285 -169 -329 -5 -14 -23 -59 -40 -100 -29 -69
-71 -193 -70 -205 0 -3 -7 -19 -15 -35 -9 -17 -14 -30 -11 -30 2 0 -3 -21 -11
-47 -8 -27 -17 -59 -19 -73 -3 -14 -10 -45 -15 -70 -15 -64 -19 -81 -24 -115
-3 -16 -7 -41 -10 -55 -10 -51 -21 -150 -30 -272 -6 -80 -6 -370 0 -423 2 -22
7 -69 10 -105 2 -36 7 -76 9 -90 3 -14 8 -43 11 -65 23 -148 50 -260 98 -405
17 -52 31 -97 32 -100 1 -3 9 -23 19 -45 10 -22 19 -44 20 -50 4 -17 108 -228
131 -265 12 -19 39 -64 60 -100 21 -36 42 -66 47 -68 4 -2 8 -8 8 -13 0 -9 37
-67 51 -79 3 -3 21 -27 40 -55 18 -27 37 -52 40 -55 3 -3 30 -34 59 -70 89
-108 381 -390 404 -390 4 0 19 -13 35 -28 l29 -28 -41 -84 c-22 -47 -41 -87
-42 -90 -1 -3 -18 -39 -37 -80 -20 -41 -66 -137 -102 -214 -36 -76 -66 -142
-66 -147 0 -5 -4 -9 -10 -9 -5 0 -10 -5 -10 -12 0 -6 -13 -38 -29 -72 -16 -34
-75 -158 -131 -276 -56 -118 -119 -251 -140 -295 -21 -44 -61 -127 -89 -185
-28 -57 -51 -110 -51 -117 0 -7 -5 -13 -10 -13 -6 0 -9 -3 -8 -7 1 -5 -8 -28
-20 -52 -12 -25 -22 -50 -22 -57 0 -7 -3 -14 -8 -16 -8 -3 -19 -26 -82 -163
-23 -49 -77 -162 -121 -250 -71 -146 -86 -169 -173 -265 -90 -98 -113 -138
-83 -141 39 -4 489 -12 531 -10 16 1 17 7 11 48 -9 60 -10 176 -2 223 10 67
46 154 186 453 22 49 41 92 41 98 0 5 5 9 10 9 6 0 10 8 10 18 0 10 7 27 15
38 8 12 11 24 8 28 -3 3 -1 6 5 6 7 0 12 9 12 20 0 11 5 20 10 20 6 0 10 6 10
14 0 8 11 36 24 63 13 26 38 77 54 113 17 36 48 103 70 150 22 47 56 120 76
163 20 42 52 112 72 155 20 42 54 115 76 162 22 47 53 113 69 148 130 280 203
435 215 456 11 17 13 17 51 -7 39 -25 312 -161 369 -184 126 -51 315 -118 379
-134 22 -5 47 -11 55 -14 116 -30 256 -58 403 -80 20 -3 52 -7 70 -10 174 -25
630 -25 760 1 12 2 36 6 52 9 139 23 358 80 404 105 13 6 24 10 25 8 1 -2 15
-32 30 -68 31 -70 29 -66 109 -250 30 -69 83 -190 117 -270 34 -80 68 -158 76
-175 29 -63 296 -680 298 -690 1 -5 9 -26 18 -45 13 -30 18 -47 33 -102 2 -5
3 -9 5 -10 1 -2 3 -12 4 -23 2 -11 6 -33 10 -50 3 -16 8 -50 11 -75 3 -25 7
-61 10 -80 3 -19 7 -78 10 -130 3 -52 7 -96 9 -98 7 -6 934 -20 953 -14 15 5
-2 46 -37 85 -14 16 -51 65 -83 110 -32 45 -63 89 -70 98 -7 8 -19 26 -27 40
-8 13 -36 60 -62 104 -63 104 -141 264 -218 445 -34 80 -70 163 -80 185 -10
22 -32 74 -50 115 -18 41 -41 95 -52 120 -11 25 -26 59 -33 75 -7 17 -22 52
-34 79 -12 27 -31 69 -41 95 -10 25 -29 71 -43 101 -14 30 -46 105 -72 165
-26 61 -55 128 -65 150 -10 22 -30 69 -45 105 -15 36 -35 83 -45 105 -58 129
-70 159 -63 166 29 26 520 273 658 330 44 18 134 51 200 74 140 48 138 44 83
165 -37 80 -57 143 -65 203 -8 67 -8 1326 0 1392 7 48 12 76 21 120 3 11 16
49 30 84 17 41 22 68 16 75 -6 8 -114 11 -372 10 -200 -1 -369 -2 -375 -3 -19
-2 -16 -22 10 -72 25 -48 58 -140 63 -173 2 -12 8 -39 13 -61 6 -25 10 -330
11 -802 l0 -761 -62 -49 c-90 -71 -289 -203 -305 -203 -3 0 -17 -9 -33 -20
l-27 -20 -88 203 c-48 111 -96 222 -107 247 -11 25 -24 54 -28 65 -5 11 -23
51 -39 88 -17 38 -31 70 -31 72 0 3 -13 34 -30 69 -16 36 -41 94 -56 128 -15
35 -34 79 -42 98 -9 19 -16 37 -17 40 0 3 -13 31 -28 63 -15 32 -27 60 -27 62
0 3 -18 47 -41 97 -22 51 -47 107 -54 123 -30 68 -211 488 -252 585 -25 58
-58 133 -74 168 -16 34 -29 65 -29 68 0 3 -12 31 -26 62 -32 70 -33 73 -134
307 -93 216 -100 233 -128 295 -11 25 -30 70 -43 100 -12 30 -24 57 -26 59 -9
11 -163 18 -163 8 0 -5 -5 -5 -10 -2 -8 5 -180 7 -290 4 -14 0 -77 0 -224 2
-39 0 -73 2 -77 4 -4 3 -11 -1 -17 -8 -8 -9 3 -28 40 -72 80 -96 138 -178 138
-195 0 -9 -16 -46 -34 -83 -19 -37 -35 -69 -34 -70 0 -1 -24 -54 -55 -117
-109 -228 -155 -326 -187 -395 -18 -38 -61 -129 -96 -202 -35 -72 -64 -137
-64 -142 0 -6 -4 -11 -10 -11 -5 0 -10 -6 -10 -14 0 -8 -17 -49 -39 -92 -36
-73 -68 -142 -91 -196 -6 -13 -14 -30 -20 -38 -5 -8 -33 -64 -61 -125 -28 -60
-73 -155 -99 -210 -57 -120 -110 -232 -180 -380 -29 -60 -68 -143 -86 -182
-18 -40 -37 -73 -42 -73 -4 0 -22 17 -39 38 -17 20 -39 47 -50 59 -10 12 -26
31 -35 42 -20 24 -155 224 -177 261 -42 72 -148 289 -156 320 -1 3 -5 12 -8
20 -13 30 -66 186 -78 230 -17 63 -17 63 -22 85 -3 11 -12 51 -21 89 -9 38
-14 71 -12 73 3 3 0 16 -5 30 -11 29 -20 97 -34 263 -6 69 -6 383 -1 430 3 19
7 67 10 105 4 39 8 81 11 95 2 14 6 41 9 60 10 65 35 187 47 231 7 24 13 51
14 59 9 74 114 365 185 515 50 105 170 318 182 323 4 2 8 8 8 13 0 8 12 27 78
118 26 38 124 163 152 195 45 53 214 220 264 261 27 22 54 45 60 50 26 23 127
95 209 148 269 175 602 306 924 361 33 6 95 14 178 23 126 14 499 6 597 -12 9
-2 38 -7 65 -10 68 -10 255 -52 338 -76 261 -77 506 -193 749 -357 73 -49 80
-52 97 -36 9 8 16 24 14 34 -2 10 -6 40 -10 67 -4 26 -9 62 -12 78 -3 17 -7
40 -8 52 -3 25 -15 96 -21 128 -2 10 -6 37 -10 60 -3 22 -8 47 -9 55 -2 8 -4
23 -4 32 -1 26 -40 46 -96 51 -27 3 -79 10 -115 17 -36 6 -74 13 -85 15 -39 6
-212 45 -390 86 -99 22 -189 43 -200 45 -11 2 -42 8 -70 14 -53 10 -88 17
-144 26 -18 3 -43 8 -55 10 -23 5 -61 11 -118 19 -21 3 -57 8 -80 11 -39 6
-415 13 -421 8z m-403 -2846 c76 -248 102 -313 274 -668 38 -80 82 -172 97
-205 15 -33 37 -82 50 -110 51 -110 208 -464 325 -735 34 -80 70 -163 80 -185
10 -22 46 -105 80 -185 34 -80 70 -163 80 -185 105 -238 141 -326 136 -334 -4
-6 -23 -14 -44 -18 -48 -9 -51 -10 -57 -13 -6 -3 -9 -4 -55 -13 -19 -4 -45 -9
-57 -12 -13 -3 -33 -7 -45 -10 -12 -2 -40 -7 -63 -10 -22 -4 -52 -8 -67 -11
-110 -18 -481 -18 -578 1 -14 2 -47 7 -75 11 -27 3 -81 12 -120 20 -38 9 -83
18 -100 20 -37 6 -248 71 -290 89 -16 7 -66 27 -110 46 -132 55 -328 164 -419
234 -25 19 -51 35 -56 35 -6 0 -10 3 -10 8 0 4 -14 16 -30 27 -16 11 -30 25
-30 32 0 6 27 69 60 140 34 70 65 137 70 148 5 11 41 87 80 169 38 82 70 150
70 152 0 1 25 56 56 121 31 65 71 150 89 188 33 70 96 204 176 370 23 50 43
92 44 95 1 3 21 46 44 95 66 137 130 272 166 350 18 39 62 131 97 205 36 74
74 154 84 178 10 23 19 42 20 42 2 0 14 -37 28 -82z"/>
</g>
</svg>
